<svg width="32" height="32" viewBox="0 0 32 32" fill="none" xmlns="http://www.w3.org/2000/svg">
<rect width="32" height="32" rx="8" fill="#F8F8F8"/>
<path d="M17.3686 10.447C16.9619 10.1812 16.4866 10.0396 16.0006 10.0396C15.5147 10.0396 15.0394 10.1812 14.6326 10.447L9.22664 13.98C9.14974 14.0303 9.08815 14.1007 9.04864 14.1836C9.00913 14.2665 8.99321 14.3587 9.00264 14.45L9.00064 14.5V18.5C9.00064 18.6327 9.05332 18.7598 9.14709 18.8536C9.24086 18.9474 9.36803 19 9.50064 19C9.63325 19 9.76043 18.9474 9.8542 18.8536C9.94796 18.7598 10.0006 18.6327 10.0006 18.5V15.342L11.0006 16.019V19.699C11.0006 19.8182 11.0432 19.9335 11.1206 20.024L11.1226 20.027L11.1286 20.034L11.1486 20.056L11.2166 20.13C11.2756 20.192 11.3606 20.278 11.4706 20.38C11.6906 20.583 12.0136 20.851 12.4296 21.12C13.2596 21.656 14.4786 22.2 16.0006 22.2C17.5226 22.2 18.7406 21.656 19.5716 21.12C19.9876 20.851 20.3106 20.583 20.5306 20.38C20.642 20.2762 20.7495 20.1681 20.8526 20.056L20.8726 20.034L20.8786 20.027L20.8806 20.025L20.8816 20.023C20.9583 19.9329 21.0005 19.8184 21.0006 19.7V16.018L22.7806 14.813C22.8525 14.7706 22.911 14.709 22.9499 14.6352C22.9887 14.5614 23.0063 14.4783 23.0006 14.395C23 14.3125 22.9789 14.2314 22.9393 14.159C22.8997 14.0866 22.8428 14.0251 22.7736 13.98L17.3686 10.447ZM20.0006 16.696V19.502C19.9606 19.542 19.911 19.5897 19.8516 19.645C19.5965 19.8797 19.3214 20.0919 19.0296 20.279C18.3096 20.743 17.2786 21.199 16.0006 21.199C14.7226 21.199 13.6906 20.743 12.9716 20.279C12.6219 20.0544 12.2965 19.794 12.0006 19.502V16.696L14.5996 18.455C15.0133 18.7349 15.5012 18.8845 16.0006 18.8845C16.5001 18.8845 16.988 18.7349 17.4016 18.455L20.0006 16.696ZM15.1796 11.284C15.4237 11.1244 15.709 11.0394 16.0006 11.0394C16.2923 11.0394 16.5776 11.1244 16.8216 11.284L21.5976 14.4L16.8416 17.627C16.5934 17.7951 16.3005 17.885 16.0006 17.885C15.7008 17.885 15.4079 17.7951 15.1596 17.627L10.4026 14.407L15.1796 11.284Z" fill="#FC4A16"/>
</svg>
