<svg width="32" height="32" viewBox="0 0 32 32" fill="none" xmlns="http://www.w3.org/2000/svg">
<rect width="32" height="32" rx="8" fill="#F8F8F8"/>
<path fill-rule="evenodd" clip-rule="evenodd" d="M11.2871 20.7129C13.3245 22.7506 16.3415 23.1908 18.8104 22.049C19.1748 21.9023 19.4736 21.7837 19.7577 21.7837C20.549 21.7884 21.5339 22.5556 22.0457 22.0443C22.5576 21.5324 21.7898 20.5467 21.7898 19.7507C21.7898 19.4666 21.9037 19.1731 22.0504 18.8079C23.1927 16.3394 22.7519 13.3215 20.7145 11.2845C18.1136 8.68263 13.888 8.68263 11.2871 11.2838C8.68148 13.8897 8.68617 18.1117 11.2871 20.7129Z" stroke="#FC4A16" stroke-linecap="round" stroke-linejoin="round"/>
<path d="M13.3747 16.2752H13.3687" stroke="#FC4A16" stroke-width="1.33333" stroke-linecap="round" stroke-linejoin="round"/>
<path d="M16.0466 16.2752H16.0406" stroke="#FC4A16" stroke-width="1.33333" stroke-linecap="round" stroke-linejoin="round"/>
<path d="M18.7204 16.2752H18.7144" stroke="#FC4A16" stroke-width="1.33333" stroke-linecap="round" stroke-linejoin="round"/>
</svg>
